<svg xmlns="http://www.w3.org/2000/svg" width="42cm" height="29.7cm" viewBox="0 0 420 297">
<rect width="420" height="297" fill="white"/>
<text x="14" y="16" font-family="DejaVu Sans" font-size="3.1" fill="#77858e" text-anchor="start" font-weight="bold">DARBNĪCA / KERAMIKAS GALDS</text>
<text x="14" y="26" font-family="DejaVu Sans" font-size="6.2" fill="#243441" text-anchor="start" font-weight="bold">Tiešie virsmas balsti — plāns</text>
<text x="14" y="34" font-family="DejaVu Sans" font-size="2.7" fill="#77858e" text-anchor="start">Mērogs 1:10 uz A3 · Četras atsevišķas kāju plāksnes · Bez augšējā rāmja</text>
<line x1="14" y1="39" x2="406" y2="39" stroke="#243441" stroke-width="0.45"/>
<line x1="14" y1="278" x2="406" y2="278" stroke="#243441" stroke-width="0.4"/>
<text x="14" y="284" font-family="DejaVu Sans" font-size="2.6" fill="#243441" text-anchor="start" font-weight="bold">PT-200  /  S02  /  RED. F  /  2026-10-01</text>
<text x="14" y="290" font-family="DejaVu Sans" font-size="2.5" fill="#77858e" text-anchor="start">Visi izmēri cm · Nomināla ģeometrija pirms krāsošanas · Izmantot norādītos izmērus</text>
<text x="406" y="284" font-family="DejaVu Sans" font-size="2.6" fill="#243441" text-anchor="end">A3 · 42 × 29,7 cm</text>
<line x1="356" y1="287" x2="406" y2="287" stroke="#243441" stroke-width="0.5"/>
<line x1="356" y1="286" x2="356" y2="288" stroke="#243441" stroke-width="0.3"/>
<line x1="366" y1="286" x2="366" y2="288" stroke="#243441" stroke-width="0.3"/>
<line x1="376" y1="286" x2="376" y2="288" stroke="#243441" stroke-width="0.3"/>
<line x1="386" y1="286" x2="386" y2="288" stroke="#243441" stroke-width="0.3"/>
<line x1="396" y1="286" x2="396" y2="288" stroke="#243441" stroke-width="0.3"/>
<line x1="406" y1="286" x2="406" y2="288" stroke="#243441" stroke-width="0.3"/>
<text x="381" y="291" font-family="DejaVu Sans" font-size="2.1" fill="#77858e" text-anchor="middle">Izdrukas pārbaude: 5 cm</text>
<rect x="45" y="62" width="200" height="100" fill="none" stroke="#aa854c" stroke-width="0.25" rx="2.5" stroke-dasharray="2 1"/>
<rect x="55" y="72" width="20" height="20" fill="#f7e6e1" stroke="#b83b31" stroke-width="0.25" rx="0"/>
<circle cx="58" cy="75" r="0.45" fill="white" stroke="#243441" stroke-width="0.15"/>
<circle cx="58" cy="89" r="0.45" fill="white" stroke="#243441" stroke-width="0.15"/>
<circle cx="72" cy="75" r="0.45" fill="white" stroke="#243441" stroke-width="0.15"/>
<circle cx="72" cy="89" r="0.45" fill="white" stroke="#243441" stroke-width="0.15"/>
<rect x="215" y="72" width="20" height="20" fill="#f7e6e1" stroke="#b83b31" stroke-width="0.25" rx="0"/>
<circle cx="218" cy="75" r="0.45" fill="white" stroke="#243441" stroke-width="0.15"/>
<circle cx="218" cy="89" r="0.45" fill="white" stroke="#243441" stroke-width="0.15"/>
<circle cx="232" cy="75" r="0.45" fill="white" stroke="#243441" stroke-width="0.15"/>
<circle cx="232" cy="89" r="0.45" fill="white" stroke="#243441" stroke-width="0.15"/>
<rect x="55" y="132" width="20" height="20" fill="#f7e6e1" stroke="#b83b31" stroke-width="0.25" rx="0"/>
<circle cx="58" cy="135" r="0.45" fill="white" stroke="#243441" stroke-width="0.15"/>
<circle cx="58" cy="149" r="0.45" fill="white" stroke="#243441" stroke-width="0.15"/>
<circle cx="72" cy="135" r="0.45" fill="white" stroke="#243441" stroke-width="0.15"/>
<circle cx="72" cy="149" r="0.45" fill="white" stroke="#243441" stroke-width="0.15"/>
<rect x="215" y="132" width="20" height="20" fill="#f7e6e1" stroke="#b83b31" stroke-width="0.25" rx="0"/>
<circle cx="218" cy="135" r="0.45" fill="white" stroke="#243441" stroke-width="0.15"/>
<circle cx="218" cy="149" r="0.45" fill="white" stroke="#243441" stroke-width="0.15"/>
<circle cx="232" cy="135" r="0.45" fill="white" stroke="#243441" stroke-width="0.15"/>
<circle cx="232" cy="149" r="0.45" fill="white" stroke="#243441" stroke-width="0.15"/>
<rect x="62" y="79" width="6" height="6" fill="none" stroke="#243441" stroke-width="0.2" rx="0" stroke-dasharray="1 .6"/>
<rect x="222" y="79" width="6" height="6" fill="none" stroke="#243441" stroke-width="0.2" rx="0" stroke-dasharray="1 .6"/>
<rect x="62" y="139" width="6" height="6" fill="none" stroke="#243441" stroke-width="0.2" rx="0" stroke-dasharray="1 .6"/>
<rect x="222" y="139" width="6" height="6" fill="none" stroke="#243441" stroke-width="0.2" rx="0" stroke-dasharray="1 .6"/>
<polygon points="68,81.7 74,81.7 68,81.7 68,82.3 74,82.3 68,82.3" fill="#b83b31" stroke="#b83b31" stroke-width="0.2"/>
<polygon points="65.3,85 65.3,91 65.3,85 64.7,85 64.7,91 64.7,85" fill="#b83b31" stroke="#b83b31" stroke-width="0.2"/>
<polygon points="222,82.3 216,82.3 222,82.3 222,81.7 216,81.7 222,81.7" fill="#b83b31" stroke="#b83b31" stroke-width="0.2"/>
<polygon points="225.3,85 225.3,91 225.3,85 224.7,85 224.7,91 224.7,85" fill="#b83b31" stroke="#b83b31" stroke-width="0.2"/>
<polygon points="68,141.7 74,141.7 68,141.7 68,142.3 74,142.3 68,142.3" fill="#b83b31" stroke="#b83b31" stroke-width="0.2"/>
<polygon points="64.7,139 64.7,133 64.7,139 65.3,139 65.3,133 65.3,139" fill="#b83b31" stroke="#b83b31" stroke-width="0.2"/>
<polygon points="222,142.3 216,142.3 222,142.3 222,141.7 216,141.7 222,141.7" fill="#b83b31" stroke="#b83b31" stroke-width="0.2"/>
<polygon points="224.7,139 224.7,133 224.7,139 225.3,139 225.3,133 225.3,139" fill="#b83b31" stroke="#b83b31" stroke-width="0.2"/>
<text x="145" y="107" font-family="DejaVu Sans" font-size="3.2" fill="#243441" text-anchor="middle">5 cm bērza saplāksnis nes virsmas slodzi.</text>
<text x="145" y="116" font-family="DejaVu Sans" font-size="3" fill="#243441" text-anchor="middle">Kājas un plaukts sametināti vienā pamatnē.</text>
<line x1="45" y1="62" x2="45" y2="51" stroke="#77858e" stroke-width="0.18"/>
<line x1="245" y1="62" x2="245" y2="51" stroke="#77858e" stroke-width="0.18"/>
<line x1="45" y1="49" x2="245" y2="49" stroke="#77858e" stroke-width="0.18"/>
<polygon points="45,49 46.6,48.45 46.6,49.55" fill="#77858e" stroke="#77858e" stroke-width="0.1"/>
<polygon points="245,49 243.4,48.45 243.4,49.55" fill="#77858e" stroke="#77858e" stroke-width="0.1"/>
<text x="145" y="47.5" font-family="DejaVu Sans" font-size="3" fill="#243441" text-anchor="middle">200 — virsma</text>
<line x1="45" y1="62" x2="27" y2="62" stroke="#77858e" stroke-width="0.18"/>
<line x1="45" y1="162" x2="27" y2="162" stroke="#77858e" stroke-width="0.18"/>
<line x1="25" y1="62" x2="25" y2="162" stroke="#77858e" stroke-width="0.18"/>
<polygon points="25,62 24.45,63.6 25.55,63.6" fill="#77858e" stroke="#77858e" stroke-width="0.1"/>
<polygon points="25,162 24.45,160.4 25.55,160.4" fill="#77858e" stroke="#77858e" stroke-width="0.1"/>
<text x="23.5" y="112" font-family="DejaVu Sans" font-size="3" fill="#243441" text-anchor="middle" transform="rotate(-90 23.5 112)">100 — virsma</text>
<line x1="65" y1="162" x2="65" y2="205" stroke="#77858e" stroke-width="0.18"/>
<line x1="225" y1="162" x2="225" y2="205" stroke="#77858e" stroke-width="0.18"/>
<line x1="65" y1="203" x2="225" y2="203" stroke="#77858e" stroke-width="0.18"/>
<polygon points="65,203 66.6,202.45 66.6,203.55" fill="#77858e" stroke="#77858e" stroke-width="0.1"/>
<polygon points="225,203 223.4,202.45 223.4,203.55" fill="#77858e" stroke="#77858e" stroke-width="0.1"/>
<text x="145" y="201.5" font-family="DejaVu Sans" font-size="3" fill="#243441" text-anchor="middle">160 — kāju centri</text>
<line x1="245" y1="82" x2="261" y2="82" stroke="#77858e" stroke-width="0.18"/>
<line x1="245" y1="142" x2="261" y2="142" stroke="#77858e" stroke-width="0.18"/>
<line x1="259" y1="82" x2="259" y2="142" stroke="#77858e" stroke-width="0.18"/>
<polygon points="259,82 258.45,83.6 259.55,83.6" fill="#77858e" stroke="#77858e" stroke-width="0.1"/>
<polygon points="259,142 258.45,140.4 259.55,140.4" fill="#77858e" stroke="#77858e" stroke-width="0.1"/>
<text x="257.5" y="112" font-family="DejaVu Sans" font-size="3" fill="#243441" text-anchor="middle" transform="rotate(-90 257.5 112)">60 — kāju centri</text>
<line x1="75" y1="162" x2="75" y2="218" stroke="#77858e" stroke-width="0.18"/>
<line x1="215" y1="162" x2="215" y2="218" stroke="#77858e" stroke-width="0.18"/>
<line x1="75" y1="216" x2="215" y2="216" stroke="#77858e" stroke-width="0.18"/>
<polygon points="75,216 76.6,215.45 76.6,216.55" fill="#77858e" stroke="#77858e" stroke-width="0.1"/>
<polygon points="215,216 213.4,215.45 213.4,216.55" fill="#77858e" stroke="#77858e" stroke-width="0.1"/>
<text x="145" y="214.5" font-family="DejaVu Sans" font-size="3" fill="#243441" text-anchor="middle">140 — starp P01 iekšmalām</text>
<circle cx="45" cy="62" r="1" fill="white" stroke="#243441" stroke-width="0.22"/>
<text x="42" y="59" font-family="DejaVu Sans" font-size="2.7" fill="#243441" text-anchor="end">0;0</text>
<text x="328" y="63" font-family="DejaVu Sans" font-size="2.65" fill="#243441" text-anchor="start">P01: 4 GAB.</text>
<text x="328" y="68.3" font-family="DejaVu Sans" font-size="2.65" fill="#243441" text-anchor="start">20 × 20 × 0,8</text>
<text x="328" y="73.6" font-family="DejaVu Sans" font-size="2.65" fill="#243441" text-anchor="start">X: 10–30; 170–190</text>
<text x="328" y="78.9" font-family="DejaVu Sans" font-size="2.65" fill="#243441" text-anchor="start">Y: 10–30; 70–90</text>
<text x="328" y="84.2" font-family="DejaVu Sans" font-size="2.65" fill="#243441" text-anchor="start"></text>
<text x="328" y="89.5" font-family="DejaVu Sans" font-size="2.65" fill="#243441" text-anchor="start">Kāju centri:</text>
<text x="328" y="94.8" font-family="DejaVu Sans" font-size="2.65" fill="#243441" text-anchor="start">X=20 un 180</text>
<text x="328" y="100.1" font-family="DejaVu Sans" font-size="2.65" fill="#243441" text-anchor="start">Y=20 un 80</text>
<text x="328" y="105.4" font-family="DejaVu Sans" font-size="2.65" fill="#243441" text-anchor="start"></text>
<text x="328" y="110.7" font-family="DejaVu Sans" font-size="2.65" fill="#243441" text-anchor="start">4 kokskrūves katrā P01.</text>
<text x="328" y="116" font-family="DejaVu Sans" font-size="2.65" fill="#243441" text-anchor="start">Urbumu kvadrāts 14 × 14.</text>
<text x="328" y="121.3" font-family="DejaVu Sans" font-size="2.65" fill="#243441" text-anchor="start">Plāksnes augša Z=73.</text>
<text x="328" y="126.6" font-family="DejaVu Sans" font-size="2.65" fill="#243441" text-anchor="start"></text>
<text x="328" y="131.9" font-family="DejaVu Sans" font-size="2.65" fill="#243441" text-anchor="start">Bez mīkstas starplikas.</text>
<text x="328" y="137.2" font-family="DejaVu Sans" font-size="2.65" fill="#243441" text-anchor="start">Kāju galvas: S04.</text>
<text x="18" y="239" font-family="DejaVu Sans" font-size="2.8" fill="#243441" text-anchor="start">Kāju centru diagonāle: 170,88; diagonāļu starpība ≤0,2. Plāksnēm cieši jābalsta virsma.</text>
<text x="18" y="245" font-family="DejaVu Sans" font-size="2.8" fill="#243441" text-anchor="start">Visām P01 cieši jābalsta virsma; spraugas koriģēt ar cietām pilnas saskares starplikām.</text>
<text x="18" y="251" font-family="DejaVu Sans" font-size="2.8" fill="#243441" text-anchor="start">Nav perimetra siju vai centrālo šķērssiju. Plaukts savieno visas četras kājas zemāk.</text>
<text x="18" y="257" font-family="DejaVu Sans" font-size="2.8" fill="#243441" text-anchor="start">Pārbaudīt tukšu galdu: stingri spiežot abos virzienos, nav šūpošanās, klikšķu vai slīdēšanas.</text>
</svg>