<svg xmlns="http://www.w3.org/2000/svg" width="42cm" height="29.7cm" viewBox="0 0 420 297">
<rect width="420" height="297" fill="white"/>
<text x="14" y="16" font-family="DejaVu Sans" font-size="3.1" fill="#77858e" text-anchor="start" font-weight="bold">DARBNĪCA / KERAMIKAS GALDS</text>
<text x="14" y="26" font-family="DejaVu Sans" font-size="6.2" fill="#243441" text-anchor="start" font-weight="bold">Virsmas caurejošie stiprinājumi</text>
<text x="14" y="34" font-family="DejaVu Sans" font-size="2.7" fill="#77858e" text-anchor="start">Plāns 1:10 no augšas · P06 un skrūvju galvas vienā līmenī ar darba virsmu</text>
<line x1="14" y1="39" x2="406" y2="39" stroke="#243441" stroke-width="0.45"/>
<line x1="14" y1="278" x2="406" y2="278" stroke="#243441" stroke-width="0.4"/>
<text x="14" y="284" font-family="DejaVu Sans" font-size="2.6" fill="#243441" text-anchor="start" font-weight="bold">PT-250  /  S06  /  RED. D  /  2026-09-30</text>
<text x="14" y="290" font-family="DejaVu Sans" font-size="2.5" fill="#77858e" text-anchor="start">Visi izmēri cm · Nomināla ģeometrija pirms krāsošanas · Izmantot norādītos izmērus</text>
<text x="406" y="284" font-family="DejaVu Sans" font-size="2.6" fill="#243441" text-anchor="end">A3 · 42 × 29,7 cm</text>
<line x1="356" y1="287" x2="406" y2="287" stroke="#243441" stroke-width="0.5"/>
<line x1="356" y1="286" x2="356" y2="288" stroke="#243441" stroke-width="0.3"/>
<line x1="366" y1="286" x2="366" y2="288" stroke="#243441" stroke-width="0.3"/>
<line x1="376" y1="286" x2="376" y2="288" stroke="#243441" stroke-width="0.3"/>
<line x1="386" y1="286" x2="386" y2="288" stroke="#243441" stroke-width="0.3"/>
<line x1="396" y1="286" x2="396" y2="288" stroke="#243441" stroke-width="0.3"/>
<line x1="406" y1="286" x2="406" y2="288" stroke="#243441" stroke-width="0.3"/>
<text x="381" y="291" font-family="DejaVu Sans" font-size="2.1" fill="#77858e" text-anchor="middle">Izdrukas pārbaude: 5 cm</text>
<rect x="32" y="62" width="250" height="125" fill="#fcf6eb" stroke="#aa854c" stroke-width="0.35" rx="2.5"/>
<rect x="39" y="69" width="4" height="4" fill="#f7e6e1" stroke="#b83b31" stroke-width="0.2" rx="0"/>
<circle cx="41" cy="71" r="0.525" fill="#243441" stroke="#243441" stroke-width="0.1"/>
<rect x="39" y="91" width="4" height="4" fill="#f7e6e1" stroke="#b83b31" stroke-width="0.2" rx="0"/>
<circle cx="41" cy="93" r="0.525" fill="#243441" stroke="#243441" stroke-width="0.1"/>
<rect x="61" y="69" width="4" height="4" fill="#f7e6e1" stroke="#b83b31" stroke-width="0.2" rx="0"/>
<circle cx="63" cy="71" r="0.525" fill="#243441" stroke="#243441" stroke-width="0.1"/>
<rect x="61" y="91" width="4" height="4" fill="#f7e6e1" stroke="#b83b31" stroke-width="0.2" rx="0"/>
<circle cx="63" cy="93" r="0.525" fill="#243441" stroke="#243441" stroke-width="0.1"/>
<rect x="249" y="69" width="4" height="4" fill="#f7e6e1" stroke="#b83b31" stroke-width="0.2" rx="0"/>
<circle cx="251" cy="71" r="0.525" fill="#243441" stroke="#243441" stroke-width="0.1"/>
<rect x="249" y="91" width="4" height="4" fill="#f7e6e1" stroke="#b83b31" stroke-width="0.2" rx="0"/>
<circle cx="251" cy="93" r="0.525" fill="#243441" stroke="#243441" stroke-width="0.1"/>
<rect x="271" y="69" width="4" height="4" fill="#f7e6e1" stroke="#b83b31" stroke-width="0.2" rx="0"/>
<circle cx="273" cy="71" r="0.525" fill="#243441" stroke="#243441" stroke-width="0.1"/>
<rect x="271" y="91" width="4" height="4" fill="#f7e6e1" stroke="#b83b31" stroke-width="0.2" rx="0"/>
<circle cx="273" cy="93" r="0.525" fill="#243441" stroke="#243441" stroke-width="0.1"/>
<rect x="39" y="154" width="4" height="4" fill="#f7e6e1" stroke="#b83b31" stroke-width="0.2" rx="0"/>
<circle cx="41" cy="156" r="0.525" fill="#243441" stroke="#243441" stroke-width="0.1"/>
<rect x="39" y="176" width="4" height="4" fill="#f7e6e1" stroke="#b83b31" stroke-width="0.2" rx="0"/>
<circle cx="41" cy="178" r="0.525" fill="#243441" stroke="#243441" stroke-width="0.1"/>
<rect x="61" y="154" width="4" height="4" fill="#f7e6e1" stroke="#b83b31" stroke-width="0.2" rx="0"/>
<circle cx="63" cy="156" r="0.525" fill="#243441" stroke="#243441" stroke-width="0.1"/>
<rect x="61" y="176" width="4" height="4" fill="#f7e6e1" stroke="#b83b31" stroke-width="0.2" rx="0"/>
<circle cx="63" cy="178" r="0.525" fill="#243441" stroke="#243441" stroke-width="0.1"/>
<rect x="249" y="154" width="4" height="4" fill="#f7e6e1" stroke="#b83b31" stroke-width="0.2" rx="0"/>
<circle cx="251" cy="156" r="0.525" fill="#243441" stroke="#243441" stroke-width="0.1"/>
<rect x="249" y="176" width="4" height="4" fill="#f7e6e1" stroke="#b83b31" stroke-width="0.2" rx="0"/>
<circle cx="251" cy="178" r="0.525" fill="#243441" stroke="#243441" stroke-width="0.1"/>
<rect x="271" y="154" width="4" height="4" fill="#f7e6e1" stroke="#b83b31" stroke-width="0.2" rx="0"/>
<circle cx="273" cy="156" r="0.525" fill="#243441" stroke="#243441" stroke-width="0.1"/>
<rect x="271" y="176" width="4" height="4" fill="#f7e6e1" stroke="#b83b31" stroke-width="0.2" rx="0"/>
<circle cx="273" cy="178" r="0.525" fill="#243441" stroke="#243441" stroke-width="0.1"/>
<text x="41" y="58" font-family="DejaVu Sans" font-size="2.5" fill="#243441" text-anchor="middle">9</text>
<text x="63" y="58" font-family="DejaVu Sans" font-size="2.5" fill="#243441" text-anchor="middle">31</text>
<text x="251" y="58" font-family="DejaVu Sans" font-size="2.5" fill="#243441" text-anchor="middle">219</text>
<text x="273" y="58" font-family="DejaVu Sans" font-size="2.5" fill="#243441" text-anchor="middle">241</text>
<line x1="32" y1="62" x2="32" y2="52" stroke="#77858e" stroke-width="0.18"/>
<line x1="282" y1="62" x2="282" y2="52" stroke="#77858e" stroke-width="0.18"/>
<line x1="32" y1="50" x2="282" y2="50" stroke="#77858e" stroke-width="0.18"/>
<polygon points="32,50 33.6,49.45 33.6,50.55" fill="#77858e" stroke="#77858e" stroke-width="0.1"/>
<polygon points="282,50 280.4,49.45 280.4,50.55" fill="#77858e" stroke="#77858e" stroke-width="0.1"/>
<text x="157" y="48.5" font-family="DejaVu Sans" font-size="3" fill="#243441" text-anchor="middle">250</text>
<line x1="32" y1="62" x2="21" y2="62" stroke="#77858e" stroke-width="0.18"/>
<line x1="32" y1="187" x2="21" y2="187" stroke="#77858e" stroke-width="0.18"/>
<line x1="19" y1="62" x2="19" y2="187" stroke="#77858e" stroke-width="0.18"/>
<polygon points="19,62 18.45,63.6 19.55,63.6" fill="#77858e" stroke="#77858e" stroke-width="0.1"/>
<polygon points="19,187 18.45,185.4 19.55,185.4" fill="#77858e" stroke="#77858e" stroke-width="0.1"/>
<text x="17.5" y="124.5" font-family="DejaVu Sans" font-size="3" fill="#243441" text-anchor="middle" transform="rotate(-90 17.5 124.5)">125</text>
<text x="157" y="116" font-family="DejaVu Sans" font-size="3" fill="#243441" text-anchor="middle">W01 · BB uz augšu · biezums nomināli 5</text>
<text x="157" y="126" font-family="DejaVu Sans" font-size="2.8" fill="#243441" text-anchor="middle">Stūri R2,5 · augšējā un apakšējā mala R0,4</text>
<text x="302" y="57" font-family="DejaVu Sans" font-size="2.65" fill="#243441" text-anchor="start">16 STIPRINĀJUMI</text>
<text x="302" y="62.5" font-family="DejaVu Sans" font-size="2.65" fill="#243441" text-anchor="start">X=9; 31; 219; 241</text>
<text x="302" y="68" font-family="DejaVu Sans" font-size="2.65" fill="#243441" text-anchor="start">Y=9; 31; 94; 116</text>
<text x="302" y="73.5" font-family="DejaVu Sans" font-size="2.65" fill="#243441" text-anchor="start">Visas X un Y kombinācijas.</text>
<text x="302" y="79" font-family="DejaVu Sans" font-size="2.65" fill="#243441" text-anchor="start"></text>
<text x="302" y="84.5" font-family="DejaVu Sans" font-size="2.65" fill="#243441" text-anchor="start">W01 urbums Ø1,05 cauri.</text>
<text x="302" y="90" font-family="DejaVu Sans" font-size="2.65" fill="#243441" text-anchor="start">Augšā ligzda P06:</text>
<text x="302" y="95.5" font-family="DejaVu Sans" font-size="2.65" fill="#243441" text-anchor="start">4 × 4; dziļums 0,6.</text>
<text x="302" y="101" font-family="DejaVu Sans" font-size="2.65" fill="#243441" text-anchor="start"></text>
<text x="302" y="106.5" font-family="DejaVu Sans" font-size="2.65" fill="#243441" text-anchor="start">P06: 4 × 4 × 0,6.</text>
<text x="302" y="112" font-family="DejaVu Sans" font-size="2.65" fill="#243441" text-anchor="start">Konuss pēc M10 galvas.</text>
<text x="302" y="117.5" font-family="DejaVu Sans" font-size="2.65" fill="#243441" text-anchor="start">Nomināli 90°, Ø2,</text>
<text x="302" y="123" font-family="DejaVu Sans" font-size="2.65" fill="#243441" text-anchor="start">dziļums 0,5.</text>
<text x="302" y="128.5" font-family="DejaVu Sans" font-size="2.65" fill="#243441" text-anchor="start"></text>
<text x="302" y="134" font-family="DejaVu Sans" font-size="2.65" fill="#243441" text-anchor="start">Cieša, cieta saskare.</text>
<rect x="32" y="208" width="72" height="30" fill="#ead7b3" stroke="#aa854c" stroke-width="0.3" rx="0"/>
<rect x="32" y="238" width="72" height="4.8" fill="#f7e6e1" stroke="#b83b31" stroke-width="0.3" rx="0"/>
<rect x="56" y="208" width="24" height="3.6" fill="#f7e6e1" stroke="#b83b31" stroke-width="0.3" rx="0"/>
<polygon points="62,208 74,208 71,211 65,211" fill="#65727a" stroke="#243441" stroke-width="0.2"/>
<rect x="65" y="211" width="6" height="42" fill="#88949c" stroke="#243441" stroke-width="0.2" rx="0"/>
<rect x="62" y="242.8" width="12" height="1.2" fill="#65727a" stroke="#243441" stroke-width="0.2" rx="0"/>
<rect x="62" y="244" width="12" height="6" fill="#65727a" stroke="#243441" stroke-width="0.2" rx="0"/>
<text x="32" y="262" font-family="DejaVu Sans" font-size="2.7" fill="#243441" text-anchor="start">Šķērsgriezums 1:1,67</text>
<text x="128" y="202" font-family="DejaVu Sans" font-size="2.75" fill="#243441" text-anchor="start">M10 gremdgalvas skrūve 7,5 KOPĀ ar galvu; klase 8.8.</text>
<text x="128" y="209" font-family="DejaVu Sans" font-size="2.75" fill="#243441" text-anchor="start">P06 balsta galvu tēraudā; zem tās paliek 4,4 saplākšņa.</text>
<text x="128" y="216" font-family="DejaVu Sans" font-size="2.75" fill="#243441" text-anchor="start">P01 0,8; paplāksne 0,2; pašfiksējošs uzgrieznis ap 1.</text>
<text x="128" y="223" font-family="DejaVu Sans" font-size="2.75" fill="#243441" text-anchor="start">Aiz uzgriežņa vismaz 2 vītnes; pārbaudīt faktisko komplektu.</text>
<text x="128" y="230" font-family="DejaVu Sans" font-size="2.75" fill="#243441" text-anchor="start">Pievilkt krusteniski līdz ciešai saskarei, nesaspiežot koku.</text>
<text x="128" y="237" font-family="DejaVu Sans" font-size="2.75" fill="#243441" text-anchor="start">P06 un galva ir redzami, bet neizvirzās virs darba plaknes.</text>
<text x="128" y="244" font-family="DejaVu Sans" font-size="2.75" fill="#243441" text-anchor="start">Saplākšņa malas, ligzdas un urbumus aizsargāt pret mitrumu.</text>
<text x="128" y="251" font-family="DejaVu Sans" font-size="2.75" fill="#243441" text-anchor="start">Pēc pirmās nedēļas pārbaudīt pievilkumu; ieliktņus neizmantot.</text>
</svg>